<svg width="1694" height="1675" viewBox="0 0 1694 1675" fill="none" xmlns="http://www.w3.org/2000/svg">
<path d="M928.604 1192.67C1040.22 1262 1178.13 1289.12 1316.39 1257.69C1338.91 1252.57 1360.75 1246.06 1381.83 1238.26C1358.9 1428.57 1219.3 1592.75 1021.66 1637.68C823.118 1682.81 625.367 1594.11 522.802 1431.01C550.722 1429.33 578.875 1425.35 607.043 1418.95C745.299 1387.52 857.93 1303.44 928.604 1192.67ZM256.637 607.043C286.974 740.489 366.358 850.06 471.458 921.074C407.388 1030.55 383.176 1163.67 413.513 1297.11C419.916 1325.28 428.505 1352.38 439.059 1378.29C247.642 1356.32 82.1686 1216.35 37.0336 1017.81C-8.16026 819.005 80.8298 620.999 244.343 518.549C245.865 547.861 249.908 577.444 256.637 607.043ZM1373.45 1078.89C1381.34 1113.61 1385.14 1148.3 1385.16 1182.47C1359.76 1193.29 1333.04 1202 1305.17 1208.33C1179.78 1236.84 1054.72 1211.96 953.739 1148.68C985.278 1086.67 1004.49 1018.13 1008.95 946.882C1077.57 909.542 1135.74 857.59 1180.32 796.037C1274.8 860.118 1346.14 958.786 1373.45 1078.89ZM955.771 971.989C949.342 1023.62 934.326 1073.3 911.895 1119.17C872.502 1088.03 837.981 1050.46 810.103 1007.59C831.992 1005.49 853.995 1001.97 876.006 996.966C903.664 990.679 930.295 982.282 955.771 971.989ZM697.021 867.769C704.179 899.252 714.066 929.406 726.377 958.038C661.328 953.184 598.887 934.709 542.667 904.886C580.316 853.896 628.396 810.386 684.659 777.929C686.126 807.682 690.19 837.717 697.021 867.769ZM782.092 548.183C823.291 580.749 859.161 620.343 887.675 665.688C859.757 667.369 831.604 671.342 803.437 677.746C780.919 682.865 759.081 689.382 737.992 697.182C744.293 644.9 759.397 594.59 782.092 548.183ZM657.782 37.0336C853.905 -7.55148 1049.25 78.4568 1152.85 237.776C1130.96 239.878 1108.96 243.396 1086.95 248.4C948.689 279.83 836.057 363.907 765.384 474.685C653.764 405.348 515.854 378.228 377.598 409.658C349.94 415.945 323.308 424.342 297.832 434.635C321.436 245.097 460.772 81.8207 657.782 37.0336ZM462.873 1285.89C435.57 1165.79 457.243 1045.98 514.735 947.346C586.59 986.316 667.829 1008.47 752.216 1009.88C786.794 1070.44 832.895 1122.53 886.923 1163.87C823.227 1264.59 721.206 1341.09 595.822 1369.59C562.251 1377.22 528.703 1381.03 495.634 1381.29C481.578 1351.36 470.505 1319.46 462.873 1285.89ZM1216.57 388.819C1243.87 508.923 1222.2 628.737 1164.71 727.366C1098.27 691.334 1023.81 669.678 946.261 665.501C911.228 601.507 863.466 546.642 807.063 503.479C870.76 402.763 972.783 326.265 1098.17 297.761C1125.71 291.498 1153.25 287.812 1180.51 286.543C1196.14 318.454 1208.35 352.665 1216.57 388.819ZM746.382 856.548C738.49 821.83 734.691 787.136 734.665 752.972C760.066 742.153 786.784 733.443 814.658 727.106C848.228 719.475 881.776 715.671 914.845 715.404C928.901 745.338 939.975 777.233 947.606 810.803C955.566 845.816 959.361 880.803 959.323 915.249C929.639 929.113 898.033 940.048 864.785 947.606C837.238 953.869 809.705 957.554 782.44 958.822C766.811 926.912 754.601 892.701 746.382 856.548ZM996.967 799.582C990.564 771.415 981.974 744.312 971.42 718.41C1029.85 725.117 1085.86 742.819 1136.78 769.826C1102.4 816.387 1059.32 856.709 1009.26 888.075C1007.74 858.763 1003.7 829.18 996.967 799.582ZM305.998 595.822C298.038 560.809 294.243 525.821 294.281 491.375C323.965 477.511 355.571 466.577 388.819 459.018C514.203 430.515 639.27 455.388 740.248 518.669C708.747 580.6 689.547 649.055 685.055 720.207C610.086 757.945 546.82 812.814 499.124 878.675C404.643 814.594 333.301 715.926 305.998 595.822ZM1265.93 377.598C1258.77 346.115 1248.89 315.961 1236.58 287.328C1435.69 302.186 1610.38 444.684 1656.95 649.546C1703.46 854.137 1607.86 1057.89 1435.17 1157.51C1433.7 1127.76 1429.64 1097.72 1422.81 1067.67C1392.47 934.223 1313.09 824.652 1207.98 753.638C1272.05 644.166 1296.27 511.044 1265.93 377.598Z" stroke="url(#paint0_linear_34_258)" stroke-opacity="0.07" stroke-width="50.6199"/>
<defs>
<linearGradient id="paint0_linear_34_258" x1="1041.74" y1="508.36" x2="1626.74" y2="1648.36" gradientUnits="userSpaceOnUse">
<stop/>
<stop offset="1" stop-color="#666666"/>
</linearGradient>
</defs>
</svg>
