<svg width="24" height="24" viewBox="0 0 24 24" fill="none" xmlns="http://www.w3.org/2000/svg">
<g clip-path="url(#clip0_183_291)">
<path fill-rule="evenodd" clip-rule="evenodd" d="M18 4C18.5523 4 19 4.44772 19 5V21C19 21.5523 18.5523 22 18 22H6C5.20435 22 4.44152 21.6837 3.87891 21.1211C3.3163 20.5585 3 19.7956 3 19V7C3 6.20435 3.3163 5.44152 3.87891 4.87891C4.44152 4.3163 5.20435 4 6 4H18ZM6 18C5.73478 18 5.48051 18.1054 5.29297 18.293C5.10543 18.4805 5 18.7348 5 19L5.00488 19.0986C5.02757 19.3276 5.12883 19.5429 5.29297 19.707C5.48051 19.8946 5.73478 20 6 20H17V18H6ZM8 8C7.44772 8 7 8.44772 7 9C7 9.55228 7.44772 10 8 10H14C14.5523 10 15 9.55228 15 9C15 8.44772 14.5523 8 14 8H8Z" fill="black"/>
<path d="M20 2C20.5523 2 21 2.44772 21 3V17.75C21 18.1642 20.6642 18.5 20.25 18.5C19.8358 18.5 19.5 18.1642 19.5 17.75V4.5C19.5 3.94772 19.0523 3.5 18.5 3.5H10.25C9.83579 3.5 9.5 3.16421 9.5 2.75C9.5 2.33579 9.83579 2 10.25 2H20Z" fill="black"/>
</g>
<defs>
<clipPath id="clip0_183_291">
<rect width="24" height="24" fill="white"/>
</clipPath>
</defs>
</svg>
